<?xml version="1.0" encoding="UTF-8"?> <svg xmlns="http://www.w3.org/2000/svg" width="1600" height="1600" viewBox="0 0 1600 1600" fill="none"><g filter="url(#filter0_f_2009_8)"><path fill-rule="evenodd" clip-rule="evenodd" d="M779.697 542.475C827.292 528.652 879.114 549.019 921.918 574.004C965.826 599.633 1003.09 637.423 1022.71 684.324C1042.03 730.482 1048.72 785.013 1029.55 831.233C1011.56 874.608 961.795 892.203 924.615 920.883C895.308 943.491 866.017 962.435 834.438 981.743C790.58 1008.56 748.822 1079.75 703.049 1056.35C652.798 1030.67 692.451 944.102 664.683 894.97C645.304 860.681 589.132 860.759 572.365 825.119C554.408 786.949 551.654 737.226 573.497 701.138C595.165 665.338 649.052 669.142 682.217 643.623C720.094 614.478 733.801 555.805 779.697 542.475Z" fill="#DCFD10" fill-opacity="0.6"></path></g><defs><filter id="filter0_f_2009_8" x="358" y="338" width="883" height="923" filterUnits="userSpaceOnUse" color-interpolation-filters="sRGB"><feFlood flood-opacity="0" result="BackgroundImageFix"></feFlood><feBlend mode="normal" in="SourceGraphic" in2="BackgroundImageFix" result="shape"></feBlend><feGaussianBlur stdDeviation="100" result="effect1_foregroundBlur_2009_8"></feGaussianBlur></filter></defs></svg> 